<?xml version="1.0" encoding="UTF-8" standalone="no"?>
<svg
   xmlns:dc="http://purl.org/dc/elements/1.1/"
   xmlns:cc="http://creativecommons.org/ns#"
   xmlns:rdf="http://www.w3.org/1999/02/22-rdf-syntax-ns#"
   xmlns:svg="http://www.w3.org/2000/svg"
   xmlns="http://www.w3.org/2000/svg"
   version="1.1"
   id="svg2"
   xml:space="preserve"
   width="235.61"
   height="223.52617"
   viewBox="0 0 235.61001 223.52616"><metadata
     id="metadata8"><rdf:RDF><cc:Work
         rdf:about=""><dc:format>image/svg+xml</dc:format><dc:type
           rdf:resource="http://purl.org/dc/dcmitype/StillImage" /><dc:title></dc:title></cc:Work></rdf:RDF></metadata><defs
     id="defs6"><clipPath
       clipPathUnits="userSpaceOnUse"
       id="clipPath20"><path
         d="M 0,226.772 H 340.157 V 0 H 0 Z"
         id="path18" /></clipPath></defs><path
     id="path129"
     d="M 7.2332797,222.37526 C 4.2684409,220.97264 1.7370036,218.23522 0.7265519,215.33906 0.0337193,213.35327 0,208.52762 0,111.36034 V 9.4640396 L 0.8780114,7.5833206 C 2.1764288,4.8020816 4.5117012,2.4423448 7.2495387,1.1450439 L 9.6660517,0 H 117.805 225.94395 l 2.41651,1.1450439 c 2.73784,1.2973009 5.07311,3.6570377 6.37153,6.4382767 L 235.61,9.4640396 V 111.36034 c 0,97.16728 -0.0337,101.99293 -0.72655,103.97872 -1.01045,2.89616 -3.54189,5.63358 -6.50673,7.0362 l -2.43277,1.15091 H 117.805 9.6660517 Z M 67.863736,180.23095 v -6.64541 H 52.93543 c -9.468538,0 -15.211698,-0.15166 -15.703166,-0.41469 -1.835023,-0.98207 -1.991544,-2.0804 -1.989946,-13.9637 0.0014,-10.37897 0.05867,-11.29013 0.784554,-12.4806 0.526171,-0.86294 1.285379,-1.42372 2.314319,-1.70945 0.938831,-0.26071 6.946096,-0.42609 15.526908,-0.42747 l 13.995637,-0.002 v -6.44404 -6.44403 l -18.828663,0.004 -18.828662,0.004 -2.016693,0.93913 c -1.10918,0.51652 -2.62707,1.63431 -3.373087,2.48397 -2.755768,3.13846 -2.665263,2.31814 -2.665263,24.15737 0,21.83923 -0.09051,21.01891 2.665263,24.15755 0.746017,0.84967 2.263907,1.96746 3.373087,2.48398 l 2.016693,0.93912 18.828662,0.004 18.828663,0.004 v -6.64541 z m 60.617124,5.69842 c 1.10918,-0.51652 2.62708,-1.63431 3.37309,-2.48398 2.73151,-3.11102 2.6528,-2.45281 2.78462,-23.28545 0.10298,-16.27424 0.0317,-19.16435 -0.51953,-21.06045 -0.79697,-2.74146 -2.93895,-5.19156 -5.64111,-6.45256 l -2.01376,-0.93974 -19.28537,-0.004 c -13.627025,-0.003 -19.749212,0.13503 -20.866261,0.46971 -2.001513,0.59967 -4.926255,3.15581 -6.081014,5.31463 -0.876062,1.63779 -0.891133,1.94754 -1.00854,20.72736 -0.102875,16.45602 -0.03178,19.36535 0.519535,21.26183 0.796784,2.74084 2.939019,5.19108 5.640934,6.45196 l 2.013761,0.93975 h 19.533475 19.53348 l 2.01669,-0.93913 z m 30.80761,-18.91389 V 147.1546 l 1.2264,-1.17496 c 1.21547,-1.1645 1.27646,-1.17634 6.84678,-1.32931 l 5.62039,-0.15435 v 21.19019 21.19019 h 6.64541 6.64541 l 0.002,-19.43279 c 0.002,-18.53672 0.0376,-19.49201 0.78455,-20.71702 1.04506,-1.71393 2.73185,-2.13414 8.57793,-2.13692 l 4.73223,-0.002 v 21.14448 21.14449 h 6.64541 6.64541 v -27.58852 -27.58852 h -29.92596 -29.92595 l -2.08339,1.03819 c -2.31423,1.15323 -3.87025,2.78103 -4.97498,5.20447 -0.68372,1.49987 -0.735,3.24337 -0.74323,25.27269 l -0.009,23.66169 h 6.64541 6.64541 z M 70.809018,117.0417 c 2.547214,-0.7666 4.719325,-2.58872 6.137197,-5.1483 l 1.1877,-2.14407 L 78.2441,77.966955 C 78.36692,42.541159 78.437067,43.561056 75.653985,40.309651 74.821887,39.337531 73.242446,38.130809 72.11503,37.605823 L 70.078873,36.657679 H 50.142642 30.206411 l -2.036157,0.948144 c -2.540631,1.183054 -4.84622,3.826584 -5.625208,6.44972 -0.877186,2.953809 -0.877186,38.217272 0,41.17108 0.772468,2.601183 2.905541,5.057347 5.526261,6.363303 l 2.091884,1.042431 h 13.010365 13.010368 v -6.64541 -6.645411 h -8.679172 c -9.187884,0 -10.503171,-0.228831 -11.446496,-1.991452 -0.561532,-1.049234 -0.561532,-24.368768 0,-25.418002 0.984559,-1.839663 2.065692,-1.991544 14.165073,-1.989945 10.59127,0.0012 11.48892,0.05709 12.686225,0.787134 0.901219,0.549507 1.420318,1.275259 1.727138,2.414717 0.299161,1.110984 0.401734,9.026259 0.322536,24.888314 -0.127507,25.537088 -0.01845,24.455678 -2.58978,25.675858 -1.07706,0.5111 -4.283688,0.60401 -20.846157,0.60401 H 21.949992 v 6.64541 6.64541 h 23.496991 c 18.928637,0 23.859596,-0.10913 25.362035,-0.56129 z m 134.867362,0.14545 c 2.55232,-0.7089 5.19025,-2.81545 6.54011,-5.22269 l 1.24214,-2.21513 0.11244,-31.774614 c 0.12537,-35.427463 0.19554,-34.408025 -2.59237,-37.665065 -0.83209,-0.97212 -2.41153,-2.178842 -3.53895,-2.703828 l -2.03616,-0.948144 h -19.93623 -19.93623 l -2.03616,0.948144 c -2.54063,1.183054 -4.84622,3.826584 -5.6252,6.44972 -0.87719,2.953809 -0.87719,38.217272 0,41.17108 0.77898,2.623137 3.08457,5.266665 5.6252,6.449721 2.00515,0.933705 2.23398,0.948204 15.02492,0.952078 l 12.98875,0.0039 v -6.64541 -6.645411 h -8.67917 c -9.18788,0 -10.50317,-0.228831 -11.4465,-1.991452 -0.56153,-1.049234 -0.56153,-24.368768 0,-25.418002 0.98456,-1.839663 2.06569,-1.991544 14.16508,-1.989945 10.62019,0.0012 11.48631,0.0555 12.69588,0.79301 0.71398,0.435327 1.43893,1.295533 1.61101,1.911567 0.17208,0.616033 0.31287,11.74045 0.31287,24.720922 0,25.907009 0.0716,25.132719 -2.43499,26.322189 -1.12695,0.53477 -4.06593,0.62235 -20.88481,0.62235 h -19.5733 v 6.64541 6.64541 l 23.46031,-0.002 c 14.72485,-0.001 24.01178,-0.15542 24.94136,-0.4136 z M 139.77739,91.676344 c 2.55649,-1.190442 4.8642,-3.848731 5.63101,-6.486468 0.86661,-2.981038 0.86661,-38.116547 0,-41.097585 -0.76681,-2.637737 -3.07452,-5.296028 -5.63101,-6.486468 l -2.03616,-0.948144 H 117.805 97.86877 l -2.03616,0.948144 c -2.556491,1.19044 -4.864196,3.848731 -5.631008,6.486468 -0.86661,2.981038 -0.86661,38.116547 0,41.097585 0.766812,2.637737 3.074517,5.296026 5.631008,6.486468 l 2.03616,0.948143 h 19.93623 19.93623 z"
     style="opacity:1;fill:#000000;fill-opacity:1;stroke:none;stroke-width:0;stroke-linejoin:miter;stroke-miterlimit:4;stroke-dasharray:none;stroke-opacity:1" /><path
     id="path131"
     d="m 105.22912,78.713726 c -0.60359,-0.327559 -1.28324,-0.942722 -1.51032,-1.36703 -0.55983,-1.046064 -0.55817,-24.368271 0.002,-25.414614 0.9834,-1.837513 2.07212,-1.991452 14.08438,-1.991452 12.01226,0 13.10098,0.153939 14.08439,1.991452 0.56153,1.049233 0.56153,24.36877 0,25.418003 -0.98615,1.84263 -2.06052,1.992451 -14.16508,1.975326 -9.27247,-0.01312 -11.60238,-0.127176 -12.49519,-0.611685 z"
     style="opacity:1;fill:#000000;fill-opacity:1;stroke:none;stroke-width:0;stroke-linejoin:miter;stroke-miterlimit:4;stroke-dasharray:none;stroke-opacity:1" /><path
     id="path133"
     d="m 94.34468,173.15052 c -1.754646,-1.02198 -1.913064,-2.1661 -1.913064,-13.81646 0,-6.08821 0.173149,-11.52488 0.384776,-12.0815 0.211626,-0.55662 0.882773,-1.33868 1.491437,-1.73792 0.981411,-0.64372 2.301771,-0.74001 11.665751,-0.85072 11.9977,-0.14184 13.45028,0.062 14.66755,2.05839 0.72916,1.19586 0.78574,2.09325 0.78713,12.48484 0.002,11.8833 -0.15492,12.98162 -1.98994,13.9637 -1.04142,0.55735 -24.13394,0.53865 -25.09364,-0.0203 z"
     style="opacity:1;fill:#000000;fill-opacity:1;stroke:none;stroke-width:0;stroke-linejoin:miter;stroke-miterlimit:4;stroke-dasharray:none;stroke-opacity:1" /></svg>